{
  "accessors": [
    {
      "bufferView": 2,
      "componentType": 5126,
      "count": 65532,
      "max": [
        68.75320434570313,
        15.16516399383545,
        340.07659912109375
      ],
      "min": [
        -68.81065368652344,
        -15.165177345275879,
        -3.0517578125e-05
      ],
      "type": "VEC3"
    },
    {
      "bufferView": 2,
      "byteOffset": 786384,
      "componentType": 5126,
      "count": 65532,
      "max": [
        1.0,
        1.0,
        1.0
      ],
      "min": [
        -1.0,
        -1.0,
        -1.0
      ],
      "type": "VEC3"
    },
    {
      "bufferView": 3,
      "componentType": 5126,
      "count": 65532,
      "max": [
        1.0,
        1.0,
        1.0,
        1.0
      ],
      "min": [
        -1.0,
        -1.0,
        -0.9999911189079285,
        -1.0
      ],
      "type": "VEC4"
    },
    {
      "bufferView": 1,
      "componentType": 5126,
      "count": 65532,
      "max": [
        0.985166072845459,
        0.9612191319465637
      ],
      "min": [
        0.017042268067598343,
        0.0423363596200943
      ],
      "type": "VEC2"
    },
    {
      "bufferView": 0,
      "componentType": 5125,
      "count": 369498,
      "type": "SCALAR"
    },
    {
      "bufferView": 2,
      "byteOffset": 1572768,
      "componentType": 5126,
      "count": 36035,
      "max": [
        67.35025024414063,
        13.762213706970215,
        355.0617980957031
      ],
      "min": [
        -67.40769958496094,
        -13.762228012084961,
        -3.0517578125e-05
      ],
      "type": "VEC3"
    },
    {
      "bufferView": 2,
      "byteOffset": 2005188,
      "componentType": 5126,
      "count": 36035,
      "max": [
        1.0,
        1.0,
        1.0
      ],
      "min": [
        -1.0,
        -1.0,
        -1.0
      ],
      "type": "VEC3"
    },
    {
      "bufferView": 3,
      "byteOffset": 1048512,
      "componentType": 5126,
      "count": 36035,
      "max": [
        1.0,
        1.0,
        0.9999783039093018,
        1.0
      ],
      "min": [
        -1.0,
        -1.0,
        -0.9999740123748779,
        -1.0
      ],
      "type": "VEC4"
    },
    {
      "bufferView": 1,
      "byteOffset": 524256,
      "componentType": 5126,
      "count": 36035,
      "max": [
        0.7207450866699219,
        0.9317725300788879
      ],
      "min": [
        0.02223225310444832,
        0.10463119298219681
      ],
      "type": "VEC2"
    },
    {
      "bufferView": 0,
      "byteOffset": 1477992,
      "componentType": 5125,
      "count": 201894,
      "type": "SCALAR"
    }
  ],
  "asset": {
    "extras": {
      "author": "Misam Ali Rizvi (https://sketchfab.com/MisamAliRizvi)",
      "license": "CC-BY-4.0 (http://creativecommons.org/licenses/by/4.0/)",
      "source": "https://sketchfab.com/3d-models/street-lamp-04-e316a6a74db14a5da8f6b1ec2c06751d",
      "title": "Street Lamp 04"
    },
    "generator": "Sketchfab-15.34.0",
    "version": "2.0"
  },
  "bufferViews": [
    {
      "buffer": 0,
      "byteLength": 2285568,
      "name": "floatBufferViews",
      "target": 34963
    },
    {
      "buffer": 0,
      "byteLength": 812536,
      "byteOffset": 2285568,
      "byteStride": 8,
      "name": "floatBufferViews",
      "target": 34962
    },
    {
      "buffer": 0,
      "byteLength": 2437608,
      "byteOffset": 3098104,
      "byteStride": 12,
      "name": "floatBufferViews",
      "target": 34962
    },
    {
      "buffer": 0,
      "byteLength": 1625072,
      "byteOffset": 5535712,
      "byteStride": 16,
      "name": "floatBufferViews",
      "target": 34962
    }
  ],
  "buffers": [
    {
      "byteLength": 7160784,
      "uri": "scene.bin"
    }
  ],
  "extensionsUsed": [
    "KHR_materials_emissive_strength",
    "KHR_materials_specular"
  ],
  "images": [
    {
      "uri": "textures/Street_Lamp_04_baseColor.jpeg"
    },
    {
      "uri": "textures/Street_Lamp_04_metallicRoughness.png"
    },
    {
      "uri": "textures/Street_Lamp_04_emissive.jpeg"
    },
    {
      "uri": "textures/Street_Lamp_04_normal.png"
    }
  ],
  "materials": [
    {
      "doubleSided": true,
      "emissiveFactor": [
        1.0,
        1.0,
        1.0
      ],
      "emissiveTexture": {
        "index": 2
      },
      "extensions": {
        "KHR_materials_emissive_strength": {
          "emissiveStrength": 10.0
        },
        "KHR_materials_specular": {
          "specularColorFactor": [
            1.0,
            1.0,
            1.0
          ],
          "specularFactor": 0.7116212163694212
        }
      },
      "name": "Street_Lamp_04",
      "normalTexture": {
        "index": 3
      },
      "pbrMetallicRoughness": {
        "baseColorFactor": [
          0.26666747936755614,
          0.26666747936755614,
          0.26666747936755614,
          1.0
        ],
        "baseColorTexture": {
          "index": 0
        },
        "metallicRoughnessTexture": {
          "index": 1
        },
        "roughnessFactor": 0.49828723287537635
      }
    }
  ],
  "meshes": [
    {
      "name": "Street Lamp_04_Street Lamp_04_0",
      "primitives": [
        {
          "attributes": {
            "NORMAL": 1,
            "POSITION": 0,
            "TANGENT": 2,
            "TEXCOORD_0": 3
          },
          "indices": 4,
          "material": 0,
          "mode": 4
        }
      ]
    },
    {
      "name": "Street Lamp_04_Street Lamp_04_0",
      "primitives": [
        {
          "attributes": {
            "NORMAL": 6,
            "POSITION": 5,
            "TANGENT": 7,
            "TEXCOORD_0": 8
          },
          "indices": 9,
          "material": 0,
          "mode": 4
        }
      ]
    }
  ],
  "nodes": [
    {
      "children": [
        1
      ],
      "matrix": [
        1.0,
        -2.8327693431939995e-16,
        2.8327693431939985e-16,
        0.0,
        -2.832769343193999e-16,
        -2.2204460492503126e-16,
        1.0,
        0.0,
        -2.832769343193999e-16,
        -1.0,
        -2.2204460492503136e-16,
        0.0,
        0.0,
        0.0,
        0.0,
        1.0
      ],
      "name": "Sketchfab_model"
    },
    {
      "children": [
        2
      ],
      "matrix": [
        0.009999999776482582,
        0.0,
        0.0,
        0.0,
        0.0,
        -0.009999999776482582,
        0.0,
        0.0,
        0.0,
        0.0,
        -0.009999999776482582,
        0.0,
        0.0,
        0.0,
        0.0,
        1.0
      ],
      "name": "6f9f2ac636f149db8d27ff8d3536166e.fbx"
    },
    {
      "children": [
        3
      ],
      "name": "RootNode"
    },
    {
      "children": [
        4,
        5
      ],
      "matrix": [
        1.0,
        0.0,
        0.0,
        0.0,
        0.0,
        1.0,
        0.0,
        0.0,
        0.0,
        0.0,
        1.0,
        0.0,
        0.0,
        1.6399719243054278e-05,
        0.0,
        1.0
      ],
      "name": "Street Lamp_04"
    },
    {
      "mesh": 0,
      "name": "Street Lamp_04_Street Lamp_04_0"
    },
    {
      "mesh": 1,
      "name": "Street Lamp_04_Street Lamp_04_0"
    }
  ],
  "samplers": [
    {
      "magFilter": 9729,
      "minFilter": 9987,
      "wrapS": 10497,
      "wrapT": 10497
    }
  ],
  "scene": 0,
  "scenes": [
    {
      "name": "Sketchfab_Scene",
      "nodes": [
        0
      ]
    }
  ],
  "textures": [
    {
      "sampler": 0,
      "source": 0
    },
    {
      "sampler": 0,
      "source": 1
    },
    {
      "sampler": 0,
      "source": 2
    },
    {
      "sampler": 0,
      "source": 3
    }
  ]
}
